<svg width="1080" height="1920" viewBox="0 0 1080 1920" fill="none" xmlns="http://www.w3.org/2000/svg">
  <rect width="1080" height="1920" fill="#150D1F"/>
  <rect width="1080" height="1920" fill="url(#base)"/>
  <ellipse cx="720" cy="440" rx="560" ry="420" fill="#C78D7F" opacity="0.42"/>
  <ellipse cx="190" cy="700" rx="520" ry="600" fill="#67365F" opacity="0.68"/>
  <ellipse cx="820" cy="1050" rx="580" ry="520" fill="#5B3D4B" opacity="0.38"/>
  <ellipse cx="1020" cy="1520" rx="620" ry="620" fill="#0E0718" opacity="0.72"/>
  <ellipse cx="120" cy="1700" rx="520" ry="620" fill="#12091E" opacity="0.86"/>
  <g opacity="0.24" filter="url(#blur)">
    <circle cx="150" cy="620" r="18" fill="#F6D8C0"/>
    <circle cx="760" cy="370" r="27" fill="#F6D8C0"/>
    <circle cx="895" cy="500" r="34" fill="#F6D8C0"/>
    <circle cx="955" cy="735" r="28" fill="#F6D8C0"/>
    <circle cx="620" cy="1140" r="14" fill="#EAC69B"/>
    <circle cx="310" cy="1250" r="20" fill="#D8A8C8"/>
  </g>
  <path d="M0 0C280 170 520 260 1080 90V0H0Z" fill="url(#topSheen)" opacity="0.18"/>
  <path d="M0 1920V1290C260 1410 550 1390 1080 1210V1920H0Z" fill="url(#bottomShade)" opacity="0.68"/>
  <defs>
    <radialGradient id="base" cx="0" cy="0" r="1" gradientUnits="userSpaceOnUse" gradientTransform="translate(790 520) rotate(124) scale(980 860)">
      <stop stop-color="#BD897B"/>
      <stop offset="0.35" stop-color="#785064"/>
      <stop offset="0.72" stop-color="#3A2046"/>
      <stop offset="1" stop-color="#150D1F"/>
    </radialGradient>
    <linearGradient id="topSheen" x1="105" y1="8" x2="909" y2="398" gradientUnits="userSpaceOnUse">
      <stop stop-color="#C99BA9"/>
      <stop offset="1" stop-color="#D49A75" stop-opacity="0"/>
    </linearGradient>
    <linearGradient id="bottomShade" x1="540" y1="1190" x2="540" y2="1920" gradientUnits="userSpaceOnUse">
      <stop stop-color="#321B35" stop-opacity="0"/>
      <stop offset="1" stop-color="#110719"/>
    </linearGradient>
    <filter id="blur" x="80" y="300" width="950" height="1000" filterUnits="userSpaceOnUse" color-interpolation-filters="sRGB">
      <feGaussianBlur stdDeviation="12"/>
    </filter>
  </defs>
</svg>
